<svg width="20" height="20" viewBox="0 0 20 20" fill="none" xmlns="http://www.w3.org/2000/svg">
<path d="M19.7399 9.30972C19.429 9.30972 19.4505 8.96948 19.4232 8.75243C19.3684 8.33788 19.2863 8.21274 19.7184 8.09737L19.7888 7.97417L19.4877 6.84785C19.4544 6.72662 19.3176 6.78919 19.2335 6.81266C18.9343 6.89283 18.8678 6.56432 18.7818 6.35705L18.6605 6.08329C18.5158 5.7626 18.9128 5.6922 18.9421 5.59052V5.51426L18.3555 4.50331C18.2929 4.39576 18.1736 4.48962 18.1052 4.53069C17.8314 4.69494 17.6848 4.39576 17.544 4.21391C17.2839 3.87758 17.1529 3.82283 17.4716 3.49627V3.3457L16.6425 2.52247C16.5526 2.43252 16.4587 2.56354 16.4001 2.62024C16.1811 2.83925 15.9601 2.587 15.7822 2.45012C15.6042 2.31324 15.305 2.17245 15.4595 1.89674C15.5006 1.82635 15.6023 1.7012 15.4908 1.63863L14.4681 1.052C14.3723 1.00311 14.3117 1.1439 14.2726 1.20452C14.1162 1.4861 13.8365 1.29838 13.6253 1.20452C13.2695 1.05591 13.0759 1.052 13.2049 0.617898C13.2146 0.593406 13.2146 0.566128 13.2049 0.541637L13.1443 0.494707L12.018 0.193572C11.9935 0.183893 11.9662 0.183893 11.9417 0.193572L11.8596 0.389114C11.7794 0.690248 11.4568 0.584656 11.2417 0.551414C10.8232 0.496662 10.6824 0.551414 10.6824 0.0958017L10.5808 0.0117188H9.40751C9.28041 0.0117188 9.30778 0.166197 9.30583 0.25028C9.30583 0.561191 8.96558 0.539681 8.74853 0.567057C8.33594 0.621809 8.20884 0.705892 8.09347 0.271789L7.97028 0.201394L6.84591 0.502528C6.72468 0.53577 6.78725 0.67265 6.81072 0.758688C6.89089 1.05787 6.55847 1.12631 6.3551 1.21039L6.0833 1.32771C5.84278 1.43722 5.72742 1.22603 5.65311 1.09306L5.51427 1.05591L4.50332 1.64254C4.39773 1.70706 4.48768 1.82048 4.5307 1.89283C4.69495 2.16659 4.39578 2.31324 4.21392 2.45403C3.87759 2.71215 3.82284 2.84512 3.49628 2.52638H3.34572L2.52249 3.3457V3.48845L2.62026 3.58818C2.83731 3.80718 2.58702 4.0301 2.45014 4.20609C2.31326 4.38207 2.17247 4.68516 1.89675 4.52873C1.82636 4.48767 1.70121 4.38599 1.63864 4.49744L1.05201 5.52013C1.00313 5.61594 1.14392 5.67656 1.20454 5.71567C1.48612 5.8721 1.2984 6.15173 1.20454 6.36291C1.11068 6.5741 1.05201 6.8987 0.752835 6.81852L0.545561 6.7931L0.498631 6.85372L0.197497 7.98004C0.187818 8.00453 0.187818 8.03181 0.197497 8.0563L0.393039 8.13843C0.694173 8.2186 0.58858 8.54125 0.555338 8.75634C0.500587 9.1748 0.555338 9.31559 0.0997262 9.31559L0 9.41532V10.5886C0 10.7157 0.154478 10.6883 0.238561 10.6902C0.549472 10.6902 0.527962 11.0305 0.555338 11.2475C0.61009 11.6621 0.692217 11.7872 0.26007 11.9026L0.189675 12.0258L0.49081 13.1521C0.524052 13.2734 0.660931 13.2108 0.745014 13.1873C1.04419 13.1071 1.11068 13.4357 1.19671 13.6429L1.32773 13.905C1.47243 14.2256 1.07548 14.296 1.04615 14.3977V14.474L1.63277 15.4849C1.69144 15.5925 1.81658 15.4986 1.88307 15.4576C2.15682 15.2933 2.30348 15.5925 2.44427 15.7743C2.7063 16.1107 2.83535 16.1654 2.51662 16.492V16.6425L3.34572 17.4658C3.43567 17.5557 3.52953 17.4247 3.58819 17.368C3.8072 17.149 4.02816 17.4012 4.2061 17.5381C4.38404 17.675 4.68322 17.8236 4.52874 18.0915C4.48768 18.1619 4.386 18.287 4.49746 18.3496L5.52014 18.9362C5.61791 18.9851 5.67657 18.8443 5.71568 18.7837C5.87212 18.5021 6.15174 18.6899 6.36293 18.7837C6.75401 18.9441 6.90066 18.9343 6.78334 19.3703C6.77366 19.3948 6.77366 19.4221 6.78334 19.4466L6.84396 19.4935L7.97028 19.7947C7.99477 19.8043 8.02205 19.8043 8.04654 19.7947L8.12867 19.5991C8.20884 19.298 8.53148 19.4036 8.74658 19.4368C9.16504 19.4916 9.30583 19.4368 9.30583 19.8924L9.40555 19.9922H10.5788C10.7059 19.9922 10.6785 19.8396 10.6805 19.7536C10.6805 19.4427 11.0207 19.4642 11.2378 19.4368C11.6523 19.3821 11.7775 19.298 11.8928 19.7321L12.016 19.8025L13.1424 19.5014C13.2636 19.4681 13.201 19.3312 13.1776 19.2472C13.0974 18.948 13.4259 18.8815 13.6332 18.7954L13.9108 18.6762C14.2315 18.5315 14.3019 18.9284 14.4036 18.9577H14.4799L15.4908 18.3711C15.5984 18.3125 15.5045 18.1873 15.4634 18.1208C15.2992 17.8471 15.5984 17.7004 15.7802 17.5596C16.1165 17.2976 16.1713 17.1685 16.4979 17.4873H16.6425L17.4658 16.6425V16.4998C17.3563 16.3903 17.1783 16.226 17.3485 16.0207L17.7083 15.5534C17.9194 15.2444 18.1717 15.571 18.2949 15.5397C18.3211 15.5328 18.3435 15.516 18.3575 15.4928L18.9441 14.4701C18.993 14.3743 18.8522 14.3136 18.7916 14.2745C18.51 14.1181 18.6977 13.8385 18.7916 13.6292C18.9402 13.2734 18.9441 13.0798 19.3782 13.2088C19.4027 13.2185 19.4299 13.2185 19.4544 13.2088L19.5014 13.1482L19.8025 12.0219C19.8122 11.9974 19.8122 11.9701 19.8025 11.9456L19.607 11.8635C19.3058 11.7833 19.4114 11.4607 19.4447 11.2456C19.4994 10.8271 19.4447 10.6863 19.9003 10.6863L20 10.5866V9.40749C19.9765 9.2843 19.824 9.30972 19.7399 9.30972ZM15.5905 15.5925V15.5905C12.5056 18.688 7.49379 18.6982 4.39631 15.6133C1.29884 12.5284 1.28862 7.51656 4.37353 4.41908C4.54952 4.24236 4.73382 4.07405 4.92569 3.91473L4.95307 3.89127C8.32181 1.10509 13.3114 1.57732 16.0975 4.94607C18.7011 8.09399 18.4815 12.7062 15.5905 15.5925Z" fill="#C7C5C4"/>
<path d="M17.1957 11.3959C17.2335 11.2043 17.2635 11.0088 17.2857 10.8093L15.3459 9.96066L17.2798 9.11396C17.2563 8.91842 17.2257 8.72288 17.1879 8.52734L14.638 9.65952L13.3083 9.0729L14.1589 7.9192L16.9376 7.60829C16.8711 7.42316 16.8001 7.24004 16.7244 7.05882L14.6204 7.29347L15.8719 5.59421C15.7532 5.43778 15.6294 5.28658 15.5004 5.14056L13.848 7.38146L12.4049 7.54181L12.5653 6.11435L14.814 4.45812C14.6667 4.32774 14.5135 4.20455 14.3545 4.08854L12.6494 5.34392L12.884 3.2438C12.7041 3.1669 12.5209 3.09714 12.3345 3.03457L12.0275 5.8054L10.8543 6.66578L10.2774 5.34979L11.4018 2.78819C11.2102 2.7504 11.0146 2.72107 10.8152 2.7002L9.96653 4.63997L9.11983 2.70606C8.92429 2.72953 8.72875 2.76018 8.5332 2.79797L9.66148 5.34783L9.07485 6.67751L7.92116 5.82691L7.6122 3.04826C7.4258 3.11474 7.24199 3.18577 7.06078 3.2614L7.29543 5.36543L5.59617 4.11396C5.43973 4.23129 5.28785 4.35511 5.14056 4.48549L7.38342 6.13586L7.54376 7.57896L6.11631 7.42057L4.46007 5.17184C4.32969 5.31913 4.2065 5.47234 4.0905 5.63137L5.34587 7.33649L3.24771 7.09988C3.17082 7.27978 3.10106 7.46296 3.03848 7.64936L5.80735 7.95831L6.66774 9.13156L5.35174 9.70841L2.79014 8.58405C2.75236 8.77568 2.72234 8.97122 2.7002 9.17067L4.63997 10.0193L2.70606 10.866C2.72953 11.0616 2.76018 11.2571 2.79797 11.4526L5.34979 10.3244L6.67947 10.911L5.82886 12.0647L3.05021 12.3736C3.1167 12.56 3.18841 12.7439 3.26531 12.9251L5.36934 12.6904L4.11787 14.3897C4.2352 14.5461 4.35902 14.698 4.4894 14.8453L6.13977 12.6044L7.58287 12.444L7.42448 13.8715L5.1738 15.5258C5.32109 15.6562 5.4743 15.7793 5.63332 15.8954L7.33844 14.64L7.10184 16.7381C7.28174 16.815 7.46491 16.8848 7.65131 16.9474L7.96027 14.1804L9.13352 13.3201L9.71037 14.6361L8.586 17.1957C8.77763 17.2335 8.97317 17.2635 9.17263 17.2857L10.0213 15.3459L10.868 17.2798C11.0635 17.2563 11.2591 17.2257 11.4546 17.1879L10.3263 14.6361L10.9129 13.3064L12.0666 14.157L12.3776 16.9356C12.5627 16.8691 12.7458 16.7981 12.927 16.7225L12.6924 14.6185L14.3916 15.8699C14.5481 15.7526 14.7 15.6288 14.8472 15.4984L12.6044 13.8461L12.444 12.403L13.8715 12.5633L15.5277 14.812C15.6581 14.6648 15.7813 14.5115 15.8973 14.3525L14.6419 12.6474L16.742 12.8821C16.8189 12.7022 16.8887 12.519 16.9513 12.3326L14.1804 12.0256L13.3201 10.8523L14.6361 10.2755L17.1957 11.3959ZM6.57583 8.03653L7.60829 8.1519L7.66695 8.68182L7.19961 8.87736L6.57583 8.03653ZM7.62589 10.5786L7.66304 10.7115L7.56136 10.6666L7.62589 10.5786ZM7.54767 9.36035L7.64936 9.31537L7.61416 9.4503L7.54767 9.36035ZM6.0596 10.0115L7.01384 9.60086L7.33062 10.0291L7.02753 10.4397L6.0596 10.0115ZM7.6474 11.8613L6.5993 11.9786L7.21525 11.1417L7.70411 11.3607L7.6474 11.8613ZM11.9493 6.5817L11.8339 7.61416L11.304 7.67282L11.1085 7.20548L11.9493 6.5817ZM11.7538 8.1871L11.742 8.2966L11.6423 8.19883L11.7538 8.1871ZM10.6157 7.54572L10.6607 7.6474L10.5258 7.6122L10.6157 7.54572ZM9.96457 6.05765L10.385 7.01189L9.95675 7.32867L9.54611 7.02558L9.96457 6.05765ZM9.30755 7.55941L9.39554 7.62394L9.26257 7.66109L9.30755 7.55941ZM8.83825 7.2133L8.62511 7.70215L8.12452 7.64544L8.0072 6.59734L8.83825 7.2133ZM8.29855 8.23207L8.20078 8.3318L8.18905 8.23207H8.29855ZM8.03848 13.41L8.15385 12.3776L8.68377 12.3189L8.87931 12.7862L8.03848 13.41ZM8.23403 11.7968L8.24576 11.6873L8.34548 11.7851L8.23403 11.7968ZM9.37208 12.4382L9.32124 12.3384L9.45616 12.3736L9.37208 12.4382ZM10.0232 13.9262L9.60282 12.972L10.0311 12.6552L10.4417 12.9583L10.0232 13.9262ZM10.6803 12.4245L10.5805 12.36L10.7135 12.3228L10.6803 12.4245ZM8.6693 11.3072C8.32153 10.9576 8.12574 10.485 8.12452 9.99195C8.12452 8.95953 8.96149 8.12257 9.9939 8.12257C11.0263 8.12257 11.8633 8.95953 11.8633 9.99195C11.8633 10.4877 11.6663 10.9632 11.3158 11.3138C10.5831 12.0428 9.39828 12.0398 8.6693 11.3072ZM11.7968 11.7518H11.6873L11.7851 11.6521L11.7968 11.7518ZM11.1417 12.7628L11.3627 12.2837L11.8691 12.3404L11.9865 13.3885L11.1417 12.7628ZM12.3404 8.12257L13.3885 8.00524L12.7725 8.84607L12.2837 8.62315L12.3404 8.12257ZM12.3736 10.5336L12.4401 10.6235L12.3384 10.6685L12.3736 10.5336ZM12.3248 9.27235L12.4264 9.31733L12.3619 9.40532L12.3248 9.27235ZM13.412 11.9474L12.3795 11.832L12.3208 11.3021L12.7882 11.1065L13.412 11.9474ZM12.974 10.383L12.6572 9.95479L12.9603 9.54416L13.9282 9.97239L12.974 10.383Z" fill="#C7C5C4"/>
</svg>
